<svg enable-background="new 0 0 600 660" height="660" viewBox="0 0 600 660" width="600" xmlns="http://www.w3.org/2000/svg" xmlns:xlink="http://www.w3.org/1999/xlink"><radialGradient id="a" cx="-80" cy="-80" gradientTransform="matrix(1 0 0 .99983257 110.32904 20.752842)" gradientUnits="userSpaceOnUse" r="405"><stop offset="0" stop-color="#fff" stop-opacity=".31"/><stop offset=".19" stop-color="#fff" stop-opacity=".25"/><stop offset=".6" stop-color="#6b6b6b" stop-opacity=".125"/><stop offset="1" stop-opacity=".125"/></radialGradient><path d="m300 658.5s298.5-112.32 298.5-397.771c0-285.452 0-258.552 0-258.552h-597v258.552c0 285.451 298.5 397.771 298.5 397.771z" fill="#2b5df2"/><path d="m1.5 91.429688v32.179692h596.99998v-32.179692zm0 62.972652v32.1836h596.99998v-32.1836zm0 104.60937v1.26758c0 10.54218.4163 20.84069 1.1992 30.91406h594.60148c.7829-10.07337 1.1993-20.37188 1.1993-30.91406v-1.26758zm4.8496 62.97461c1.7664 11.02754 3.9818 21.75681 6.6152 32.18164h574.07028c2.6334-10.42483 4.8488-21.1541 6.6152-32.18164zm31.6972 101.42774c5.3491 11.16668 11.1658 21.88673 17.3535 32.18164h489.19928c6.1877-10.29491 12.0044-21.01496 17.3535-32.18164zm37.8282 62.97656c8.2893 11.33443 16.9926 22.05665 25.9628 32.17969h396.32428c8.9702-10.12304 17.6735-20.84526 25.9629-32.17969z" fill="#fcef3c" stroke="#000" stroke-width="3"/><g fill="#fcef3c" stroke="#000" stroke-linecap="round" stroke-linejoin="round" stroke-width="2.506506" transform="matrix(.99145356678 0 0 1.00339098117 6.76281856188 -.43257905204)"><path d="m381.543 185.256.297 27.87675h-171.961l.966-27.65575 84.947-70.44z" fill="#fcef3c" stroke="#000" stroke-linecap="round" stroke-linejoin="round" stroke-width="2.506506"/><path d="m220.10542 208.46562-23.94927-.017v-25.036l23.94927.017zm45.60414 0v-25.037h-24.43036v25.037zm105.23277-.017h24.43136v-25.037h-24.43136zm-41.71244.017h24.43135v-25.037h-24.43135zm-43.97585 0v-25.037h24.43036v25.037z" fill="#fcef3c" stroke="#000" stroke-linecap="round" stroke-linejoin="round" stroke-width="2.506506"/><path d="m196.174 208.366v26.8092h2.30793l13.11583 26.70603 14.49582-.00023-14.51717 188.55605h-1.7819v106.82416h174.25009v-106.82416h-1.78384l-15.87722-188.53946 15.89663-.0164 13.07506-26.70603v-26.80916z" fill="#fcef3c" stroke="#000" stroke-linecap="round" stroke-linejoin="round" stroke-width="2.506506"/><path d="m266.96901 503.849v26.705m-40.662 0v-26.705m-3.90701-188.238 148.18886.29886m1.67614 26.40714h-151.557m154.67273 27.842-156.87873-.389m158.87623 26.821h-161.17623m9.89158-134.71h156.18642m13.076-26.706h-196.874m185.56201 241.96801h-174.25m.71062 26.70599h173.00642m-173.14855 26.70502h173.07853m-169.63703-107.02202h165.219m3.237 26.905h-170.683m156.411-161.532h-143.671m-28.143-80.539h199.182m0 26.809h-199.182m151.55699 81.02599v25.84945m-47.857 0v-25.84945m-47.85699 25.84945v-25.84945m106.33 26.98102v26.24843m-37.27299 0v-26.24843m-45.063-.02v26.28843m-36.54701 0v-26.28843m105.20101 27.22181v26.20721m-47.857 0v-26.05099m-47.85701 26.05099v-26.706m112.61601 27.5106v26.17137m-46.39401 0v-26.17137m-44.921-.21582v25.85622m-36.911 0v-25.85624m-7.341-162.05478v-26.706m143.93399 0v26.706m-47.85699-26.706v26.706m-47.857 0v-26.706m71.28501 322.13501v26.706m-47.858-26.706v26.706m-47.857 0v-26.706m112.894-26.70502v26.705m-47.85699 0v-26.705m30.67801-26.70599v26.70599m-47.858-26.70599v26.70599m-47.857 0v-26.70599m82.216-26.13596v26.13596m-47.85698-26.13596v26.13596m-47.857 0v-26.13596m109.213-27.27606v26.705m-47.857 0v-26.705m-47.858 26.705v-26.705m79.05003-134.651v26.355m-55.562 0v-26.355m82.13298-26.72665v25.84308m-43.997 0v-25.79269m-25.274-.19572v25.62991m-48.224 0v-25.62991m107.58895-27.03301v26.706m-47.858-26.706v26.706m-47.857 0v-26.706" fill="#fcef3c" stroke="#000" stroke-linecap="round" stroke-linejoin="round" stroke-width="2.506506"/><g fill="#fcef3c" stroke="#000" stroke-linecap="round" stroke-linejoin="round" stroke-width="2.500018" transform="matrix(1.0086201 0 0 .99660642 -231.7996 371.53398)"><path d="m523.0179 86.2979c-19.36577 0-35.08292 15.73839-35.08292 35.13034v48.45564h10.8878v-48.45564c0-13.37376 10.83941-24.22782 24.19512-24.22782 13.35572 0 24.19511 10.85406 24.19511 24.22782v48.45564h10.8878v-48.45564c0-19.39195-15.71714-35.13034-35.08291-35.13034z" fill="#fcef3c"/><path d="m516.32644 83.231564 2.53292 14.309564 4.19694-.326981 4.19574.364834 2.53293-14.347417c-2.24034-.447681-4.48485-.616411-6.72932-.588856-2.24447.02756-4.48892.251386-6.72921.588856zm-12.66463 4.618435c-3.82018 2.202462-7.32407 5.092908-10.32073 8.669014l11.15244 9.350427c1.80691-2.15347 3.98238-3.99513 6.42682-5.41341zm38.78779 0-7.29634 12.643891c2.4421 1.42394 4.62399 3.25493 6.42682 5.4134l11.19024-9.388277c-2.82943-3.384769-6.28334-6.334881-10.32072-8.669014zm-55.79998 20.290791c-1.51264 4.14603-2.3439 8.61917-2.3439 13.28745h14.51706c0-2.91699.52943-5.6997 1.4744-8.29045zm72.81217.0378-13.72317 4.99699c.93586 2.57973 1.47439 5.35039 1.47439 8.2526l14.59268.0378c.005-4.41401-.74941-8.90071-2.3439-13.28744zm-75.15607 25.36356v12.11391h14.51706v-12.11391zm62.90729 0v12.11391h14.51707v-12.11391zm-62.90729 24.22782v12.11391h14.51706v-12.11391zm62.90729 0v12.11391h14.51707v-12.11391z" fill="#fcef3c"/><path d="m523.0179 97.20042c-13.35571 0-24.19512 10.85406-24.19512 24.22782v48.45564h48.39023v-48.45564c0-13.37376-10.83939-24.22782-24.19511-24.22782z" fill="#2b5df2"/></g><path d="m265.165 264.004v31.941h12.949v-31.941c0-7.405-2.58402-13.236-6.5605-13.236s-6.3885 6.062-6.3885 13.236z" fill="#2b5df2" stroke="#000" stroke-linecap="round" stroke-linejoin="round" stroke-width="2.506506"/><path d="m316.405 342.77v31.94h12.948v-31.94c0-7.405-2.67952-13.2355-6.561-13.2355s-6.387 6.0615-6.387 13.2355z" fill="#2b5df2" stroke="#000" stroke-linecap="round" stroke-linejoin="round" stroke-width="2.506506"/><path d="m303.463 121.512v-22.387h-15.572v22.387z" fill="#fcef3c" stroke="#000" stroke-linecap="round" stroke-linejoin="round" stroke-width="2.506506"/><path d="m298.793 98.79v-67.207h-6.233v67.207z" fill="#fcef3c" stroke="#000" stroke-linecap="round" stroke-linejoin="round" stroke-width="2.506506"/><path d="m298.915 39.98 92.667.564-18.686 21.312 18.686 22.093-92.667-.564z" fill="#fcef3c" stroke="#000" stroke-linecap="round" stroke-linejoin="round" stroke-width="2.506506"/><path id="b" d="m260.30621 286.29791h22.230684v12.093236h-22.230684z" fill="#fcef3c" stroke="#000" stroke-linecap="round" stroke-linejoin="round" stroke-width="2.506506"/><g fill="#fcef3c" stroke="#000" stroke-linecap="round" stroke-linejoin="round" stroke-width="2.506506"><use height="100%" transform="translate(51.615156 80.803542)" width="100%" xlink:href="#b"/><path d="m246.59468 540.04401h98.340462v7.389125h-98.340462z"/><path d="m231.46538 547.43317h128.59906v9.852165h-128.59906z"/></g></g><path d="m-298.5-298.5h597v258.5c0 286.2-298.5 398.39-298.5 398.39s-298.5-112.19-298.5-398.39z" fill="url(#a)" height="100%" stroke-width=".999916" transform="matrix(1 0 0 1.0001675 300 300.04997)" width="100%"/><path d="m300 658.39715s-298.5-112.41819-298.5-398.11874c0-285.701538 0-258.7780223 0-258.7780223h597v258.7780223c0 285.70055-298.5 398.11874-298.5 398.11874z" fill="none" stroke="#000" stroke-width="3"/></svg>