<?xml version="1.0" encoding="UTF-8" standalone="no"?>
<svg
   xmlns:dc="http://purl.org/dc/elements/1.1/"
   xmlns:cc="http://web.resource.org/cc/"
   xmlns:rdf="http://www.w3.org/1999/02/22-rdf-syntax-ns#"
   xmlns:svg="http://www.w3.org/2000/svg"
   xmlns="http://www.w3.org/2000/svg"
   xmlns:xlink="http://www.w3.org/1999/xlink"
   xmlns:sodipodi="http://sodipodi.sourceforge.net/DTD/sodipodi-0.dtd"
   xmlns:inkscape="http://www.inkscape.org/namespaces/inkscape"
   height="660"
   width="600"
   version="1.0"
   id="svg2"
   sodipodi:version="0.32"
   inkscape:version="0.44.1"
   sodipodi:docname="Blason_Colmar_68.svg"
   sodipodi:docbase="K:\blasons"
   inkscape:export-filename="/Users/olivier/Desktop/Blason Rouge/Blason_Vide_3D.png"
   inkscape:export-xdpi="144"
   inkscape:export-ydpi="144">
  <metadata
     id="metadata49">
    <rdf:RDF>
      <cc:Work
         rdf:about="">
        <dc:format>image/svg+xml</dc:format>
        <dc:type
           rdf:resource="http://purl.org/dc/dcmitype/StillImage" />
        <dc:title>Gabarit d'un blason en pointe pour le projet Blasons de Wikipédia</dc:title>
        <dc:date>03-AUG-2006</dc:date>
        <dc:creator>
          <cc:Agent>
            <dc:title>Jérôme BLUM (wagner51)</dc:title>
          </cc:Agent>
        </dc:creator>
        <cc:license
           rdf:resource="http://web.resource.org/cc/PublicDomain" />
        <dc:language>fr</dc:language>
        <dc:subject>
          <rdf:Bag>
            <rdf:li>gabarit modèle blason projet wikipédia</rdf:li>
          </rdf:Bag>
        </dc:subject>
      </cc:Work>
      <cc:License
         rdf:about="http://web.resource.org/cc/PublicDomain">
        <cc:permits
           rdf:resource="http://web.resource.org/cc/Reproduction" />
        <cc:permits
           rdf:resource="http://web.resource.org/cc/Distribution" />
        <cc:permits
           rdf:resource="http://web.resource.org/cc/DerivativeWorks" />
      </cc:License>
    </rdf:RDF>
  </metadata>
  <sodipodi:namedview
     inkscape:window-height="712"
     inkscape:window-width="1024"
     inkscape:pageshadow="2"
     inkscape:pageopacity="0.0"
     guidetolerance="10.0"
     gridtolerance="10.0"
     objecttolerance="10.0"
     borderopacity="1.0"
     bordercolor="#666666"
     pagecolor="#ffffff"
     id="base"
     showgrid="false"
     height="660px"
     inkscape:zoom="0.44547727"
     inkscape:cx="62.278204"
     inkscape:cy="330.59741"
     inkscape:window-x="-4"
     inkscape:window-y="-4"
     inkscape:current-layer="layer3" />
  <desc
     id="desc4">Flag of Canton of Valais (Wallis)</desc>
  <defs
     id="defs6">
    <linearGradient
       id="linearGradient2893">
      <stop
         style="stop-color:white;stop-opacity:0.3137255;"
         offset="0"
         id="stop2895" />
      <stop
         id="stop2897"
         offset="0.19"
         style="stop-color:white;stop-opacity:0.25098041;" />
      <stop
         style="stop-color:#6b6b6b;stop-opacity:0.1254902;"
         offset="0.60000002"
         id="stop2901" />
      <stop
         style="stop-color:black;stop-opacity:0.1254902;"
         offset="1"
         id="stop2899" />
    </linearGradient>
    <linearGradient
       id="linearGradient2885">
      <stop
         id="stop2887"
         offset="0"
         style="stop-color:white;stop-opacity:1;" />
      <stop
         style="stop-color:white;stop-opacity:1;"
         offset="0.22857143"
         id="stop2891" />
      <stop
         id="stop2889"
         offset="1"
         style="stop-color:black;stop-opacity:1;" />
    </linearGradient>
    <linearGradient
       id="linearGradient2955">
      <stop
         id="stop2867"
         offset="0"
         style="stop-color:#fd0000;stop-opacity:1;" />
      <stop
         style="stop-color:#e77275;stop-opacity:0.65882355;"
         offset="0.5"
         id="stop2873" />
      <stop
         style="stop-color:black;stop-opacity:0.32291666;"
         offset="1"
         id="stop2959" />
    </linearGradient>
    <radialGradient
       inkscape:collect="always"
       xlink:href="#linearGradient2955"
       id="radialGradient2961"
       cx="225.52438"
       cy="218.90099"
       fx="225.52438"
       fy="218.90099"
       r="300"
       gradientTransform="matrix(-4.167939e-4,2.182867,-1.884232,-3.599562e-4,615.5972,-289.1214)"
       gradientUnits="userSpaceOnUse" />
    <polygon
       id="star"
       transform="scale(53,53)"
       points="0,-1 0.58778525,0.80901699 -0.95105652,-0.30901699 0.95105652,-0.30901699 -0.58778525,0.80901699 0,-1 " />
    <clipPath
       id="clip">
      <path
         d="M 0,-200 L 0,600 L 300,600 L 300,-200 L 0,-200 z "
         id="path10" />
    </clipPath>
    <radialGradient
       inkscape:collect="always"
       xlink:href="#linearGradient2955"
       id="radialGradient1911"
       gradientUnits="userSpaceOnUse"
       gradientTransform="matrix(-4.167939e-4,2.182867,-1.884232,-3.599562e-4,615.5972,-289.1214)"
       cx="225.52438"
       cy="218.90099"
       fx="225.52438"
       fy="218.90099"
       r="300" />
    <radialGradient
       inkscape:collect="always"
       xlink:href="#linearGradient2955"
       id="radialGradient2865"
       gradientUnits="userSpaceOnUse"
       gradientTransform="matrix(0,1.748721,-1.593162,-1.049767e-7,551.7876,-191.2898)"
       cx="225.52438"
       cy="218.90099"
       fx="225.52438"
       fy="218.90099"
       r="300" />
    <radialGradient
       inkscape:collect="always"
       xlink:href="#linearGradient2955"
       id="radialGradient2871"
       gradientUnits="userSpaceOnUse"
       gradientTransform="matrix(0,1.386237,-1.323286,-5.741131e-8,-158.0823,-109.5408)"
       cx="225.52438"
       cy="218.90099"
       fx="225.52438"
       fy="218.90099"
       r="300" />
    <radialGradient
       inkscape:collect="always"
       xlink:href="#linearGradient2893"
       id="radialGradient3163"
       gradientUnits="userSpaceOnUse"
       gradientTransform="matrix(1.353218,0,0,1.348928,-77.62935,-85.74693)"
       cx="221.44487"
       cy="226.33101"
       fx="221.44487"
       fy="226.33101"
       r="300" />
  </defs>
  <g
     inkscape:groupmode="layer"
     id="layer3"
     inkscape:label="Fond écu"
     style="display:inline">
    <path
       id="path2855"
       style="fill:#e20909;fill-opacity:1;fill-rule:evenodd;stroke:none;stroke-width:1px;stroke-linecap:butt;stroke-linejoin:miter;stroke-opacity:1"
       d="M 300,658.5 C 300,658.5 598.50001,546.17969 598.50001,260.72817 C 598.50001,-24.723354 598.50001,2.1764765 598.50001,2.1764765 L 1.5,2.1764765 L 1.5,260.72817 C 1.5,546.17969 300,658.5 300,658.5 z "
       sodipodi:nodetypes="cccccc" />
    <path
       style="fill:#5ab532;fill-opacity:1;stroke:black;stroke-width:3;stroke-miterlimit:4;stroke-dasharray:none;stroke-opacity:1"
       d="M 597.50001,2.1875 L 597.50001,288.96875 C 579.08378,548.47156 311.39185,654.0887 301.00001,658.09375 L 301.00001,2.1875 L 597.50001,2.1875 z "
       id="rect2045" />
    <g
       id="g14030"
       transform="matrix(0.613701,-0.6137,0.6137,0.613701,3.829182,430.9979)">
      <path
         sodipodi:nodetypes="ccssccccccsscc"
         id="path2148"
         d="M 43.091335,135.87822 C 43.091335,135.87822 50.473592,126.72733 53.654004,121.55942 C 54.64932,121.26668 54.231797,121.45401 55.011319,121.86379 C 56.81965,122.81438 59.125823,123.91188 62.466731,122.51606 C 62.676298,122.42851 63.349534,121.50087 64.252326,121.44232 C 64.896354,121.61797 64.369422,123.81925 64.369422,123.81925 L 225.37994,123.54661 L 224.71754,150.20801 L 64.252326,149.73963 C 64.252326,149.73963 64.262371,150.90886 63.676891,150.96741 C 62.80109,151.05499 62.384601,150.12242 62.384601,150.12242 C 60.253682,147.86083 58.743464,146.84957 54.71719,150.84793 C 54.575678,150.98846 54.183589,151.46436 53.292671,150.87041 C 51.887519,149.93364 51.86807,146.97334 43.091335,135.87822 z "
         style="fill:#fcef3c;fill-opacity:1;fill-rule:evenodd;stroke:black;stroke-width:2;stroke-linecap:butt;stroke-linejoin:miter;stroke-miterlimit:4;stroke-dasharray:none;stroke-opacity:1" />
      <path
         sodipodi:nodetypes="cc"
         id="path3038"
         d="M 53.985202,121.55942 L 53.985202,149.95962"
         style="fill:none;fill-rule:evenodd;stroke:black;stroke-width:2;stroke-linecap:butt;stroke-linejoin:miter;stroke-miterlimit:4;stroke-dasharray:none;stroke-opacity:1" />
      <path
         sodipodi:nodetypes="cc"
         style="fill:none;fill-rule:evenodd;stroke:black;stroke-width:2;stroke-linecap:butt;stroke-linejoin:miter;stroke-miterlimit:4;stroke-dasharray:none;stroke-opacity:1"
         d="M 64.252326,123.9606 L 64.252326,149.62842"
         id="path3925" />
      <path
         transform="matrix(0.714822,0,0,1.060682,9.451235,-7.79273)"
         d="M 53.819604 135.92511 A 10.225724 8.5697365 0 1 1  33.368155,135.92511 A 10.225724 8.5697365 0 1 1  53.819604 135.92511 z"
         sodipodi:ry="8.5697365"
         sodipodi:rx="10.225724"
         sodipodi:cy="135.92511"
         sodipodi:cx="43.59388"
         id="path3927"
         style="fill:#fcef3c;fill-opacity:1;stroke:black;stroke-width:2.29688072;stroke-miterlimit:4;stroke-dasharray:none;stroke-opacity:1"
         sodipodi:type="arc" />
      <path
         style="fill:none;fill-rule:evenodd;stroke:black;stroke-width:2;stroke-linecap:butt;stroke-linejoin:miter;stroke-miterlimit:4;stroke-dasharray:none;stroke-opacity:1"
         d="M 81.3918,123.795 C 81.3918,123.795 71.787071,126.52739 64.335126,126.61019"
         id="path4814"
         sodipodi:nodetypes="cc" />
      <path
         sodipodi:nodetypes="cc"
         id="path4816"
         d="M 90.416933,123.8778 C 90.416933,123.8778 77.251831,128.84577 64.335126,129.34257"
         style="fill:none;fill-rule:evenodd;stroke:black;stroke-width:2;stroke-linecap:butt;stroke-linejoin:miter;stroke-miterlimit:4;stroke-dasharray:none;stroke-opacity:1" />
      <g
         style="stroke:black;stroke-width:2;stroke-miterlimit:4;stroke-dasharray:none;stroke-opacity:1"
         id="g4836">
        <path
           style="fill:none;fill-rule:evenodd;stroke:black;stroke-width:2;stroke-linecap:butt;stroke-linejoin:miter;stroke-miterlimit:4;stroke-dasharray:none;stroke-opacity:1"
           d="M 112.44157,123.7122 C 112.44157,123.7122 79.901411,135.88372 64.335126,136.21492"
           id="path4824"
           sodipodi:nodetypes="cc" />
        <path
           sodipodi:nodetypes="cc"
           id="path4826"
           d="M 120.39031,123.795 C 120.39031,123.795 88.760946,137.37411 64.335126,138.9473"
           style="fill:none;fill-rule:evenodd;stroke:black;stroke-width:2;stroke-linecap:butt;stroke-linejoin:miter;stroke-miterlimit:4;stroke-dasharray:none;stroke-opacity:1" />
      </g>
      <path
         style="fill:none;fill-rule:evenodd;stroke:black;stroke-width:2;stroke-linecap:butt;stroke-linejoin:miter;stroke-miterlimit:4;stroke-dasharray:none;stroke-opacity:1"
         d="M 136.28779,123.7122 C 111.61357,134.14492 87.767353,143.66686 64.335126,145.57125"
         id="path4832"
         sodipodi:nodetypes="cc" />
      <path
         sodipodi:nodetypes="cc"
         id="path4834"
         d="M 144.15373,123.6294 C 119.81071,134.55891 87.767353,147.22723 64.335126,149.13162"
         style="fill:none;fill-rule:evenodd;stroke:black;stroke-width:2;stroke-linecap:butt;stroke-linejoin:miter;stroke-miterlimit:4;stroke-dasharray:none;stroke-opacity:1" />
      <g
         style="stroke:black;stroke-width:2;stroke-miterlimit:4;stroke-dasharray:none;stroke-opacity:1"
         transform="translate(32.29176,10.26712)"
         id="g4840">
        <path
           sodipodi:nodetypes="cc"
           id="path4842"
           d="M 128.33905,113.44508 C 128.33905,113.44508 72.780664,138.3677 54.647597,139.1957"
           style="fill:none;fill-rule:evenodd;stroke:black;stroke-width:2;stroke-linecap:butt;stroke-linejoin:miter;stroke-miterlimit:4;stroke-dasharray:none;stroke-opacity:1" />
        <path
           style="fill:none;fill-rule:evenodd;stroke:black;stroke-width:2;stroke-linecap:butt;stroke-linejoin:miter;stroke-miterlimit:4;stroke-dasharray:none;stroke-opacity:1"
           d="M 134.963,113.52788 C 134.963,113.52788 90.748131,134.64173 66.819108,139.4441"
           id="path4844"
           sodipodi:nodetypes="cc" />
      </g>
      <g
         style="stroke:black;stroke-width:2;stroke-miterlimit:4;stroke-dasharray:none;stroke-opacity:1"
         id="g4846"
         transform="translate(58.29077,11.09511)">
        <path
           style="fill:none;fill-rule:evenodd;stroke:black;stroke-width:2;stroke-linecap:butt;stroke-linejoin:miter;stroke-miterlimit:4;stroke-dasharray:none;stroke-opacity:1"
           d="M 122.62589,112.69989 C 122.62589,112.69989 92.072922,130.50176 60.774752,138.5333"
           id="path4848"
           sodipodi:nodetypes="cc" />
        <path
           sodipodi:nodetypes="cc"
           id="path4850"
           d="M 128.58745,112.86548 C 128.58745,112.86548 94.391304,132.57175 71.373074,138.7817"
           style="fill:none;fill-rule:evenodd;stroke:black;stroke-width:2;stroke-linecap:butt;stroke-linejoin:miter;stroke-miterlimit:4;stroke-dasharray:none;stroke-opacity:1" />
      </g>
      <g
         style="stroke:black;stroke-width:2;stroke-miterlimit:4;stroke-dasharray:none;stroke-opacity:1"
         transform="translate(89.09214,11.09511)"
         id="g4852">
        <path
           sodipodi:nodetypes="cc"
           id="path4854"
           d="M 113.93195,112.53429 C 113.93195,112.53429 86.442564,130.33616 60.774752,138.5333"
           style="fill:none;fill-rule:evenodd;stroke:black;stroke-width:2;stroke-linecap:butt;stroke-linejoin:miter;stroke-miterlimit:4;stroke-dasharray:none;stroke-opacity:1" />
        <path
           style="fill:none;fill-rule:evenodd;stroke:black;stroke-width:2;stroke-linecap:butt;stroke-linejoin:miter;stroke-miterlimit:4;stroke-dasharray:none;stroke-opacity:1"
           d="M 119.56232,112.86548 C 119.56232,112.86548 91.079328,130.91576 69.551487,138.7817"
           id="path4856"
           sodipodi:nodetypes="cc" />
      </g>
      <g
         style="stroke:black;stroke-width:2;stroke-miterlimit:4;stroke-dasharray:none;stroke-opacity:1"
         id="g4860"
         transform="translate(120.0591,11.09511)">
        <path
           style="fill:none;fill-rule:evenodd;stroke:black;stroke-width:2;stroke-linecap:butt;stroke-linejoin:miter;stroke-miterlimit:4;stroke-dasharray:none;stroke-opacity:1"
           d="M 105.07242,112.69989 C 105.07242,112.69989 85.117774,128.01778 59.449962,139.1129"
           id="path4862"
           sodipodi:nodetypes="cc" />
        <path
           sodipodi:nodetypes="cc"
           id="path4864"
           d="M 105.15523,116.67425 C 105.15523,116.67425 86.111365,130.08777 66.901907,138.9473"
           style="fill:none;fill-rule:evenodd;stroke:black;stroke-width:2;stroke-linecap:butt;stroke-linejoin:miter;stroke-miterlimit:4;stroke-dasharray:none;stroke-opacity:1" />
      </g>
      <g
         style="stroke:black;stroke-width:2;stroke-miterlimit:4;stroke-dasharray:none;stroke-opacity:1"
         transform="translate(143.4913,11.09511)"
         id="g4866">
        <path
           sodipodi:nodetypes="cc"
           id="path4868"
           d="M 81.308995,126.36179 C 81.308995,126.36179 71.124677,133.64814 59.449962,139.1129"
           style="fill:none;fill-rule:evenodd;stroke:black;stroke-width:2;stroke-linecap:butt;stroke-linejoin:miter;stroke-miterlimit:4;stroke-dasharray:none;stroke-opacity:1" />
        <path
           style="fill:none;fill-rule:evenodd;stroke:black;stroke-width:2;stroke-linecap:butt;stroke-linejoin:miter;stroke-miterlimit:4;stroke-dasharray:none;stroke-opacity:1"
           d="M 81.226207,129.50816 C 81.226207,129.50816 71.041876,137.29132 66.156712,139.0301"
           id="path4870"
           sodipodi:nodetypes="cc" />
      </g>
      <path
         id="path4872"
         d="M 225.04874,120.23463 L 225.04874,154.01678 L 373.92204,154.01678 L 373.92204,120.40023 L 225.04874,120.23463 z "
         style="fill:#fcef3c;fill-opacity:1;fill-rule:evenodd;stroke:black;stroke-width:2;stroke-linecap:butt;stroke-linejoin:miter;stroke-miterlimit:4;stroke-dasharray:none;stroke-opacity:1" />
      <path
         id="path4874"
         d="M 225.21434,127.52098 L 373.92204,127.52098"
         style="fill:none;fill-rule:evenodd;stroke:black;stroke-width:2;stroke-linecap:butt;stroke-linejoin:miter;stroke-miterlimit:4;stroke-dasharray:none;stroke-opacity:1" />
      <path
         style="fill:none;fill-rule:evenodd;stroke:black;stroke-width:2;stroke-linecap:butt;stroke-linejoin:miter;stroke-miterlimit:4;stroke-dasharray:none;stroke-opacity:1"
         d="M 225.21434,146.89604 L 373.92204,146.89604"
         id="path4876" />
      <path
         id="path4878"
         d="M 373.5363,123.46604 L 520.84309,123.46604 L 526.69789,116.67447 L 530.44497,116.67447 L 530.44497,157.65808 L 526.4637,157.65808 L 520.6089,150.63232 L 373.77049,150.63232 L 373.5363,123.46604 z "
         style="fill:#fcef3c;fill-opacity:1;fill-rule:evenodd;stroke:black;stroke-width:2;stroke-linecap:butt;stroke-linejoin:miter;stroke-miterlimit:4;stroke-dasharray:none;stroke-opacity:1" />
      <path
         sodipodi:nodetypes="cc"
         id="path4880"
         d="M 520.6089,123.70023 L 520.98028,150.76951"
         style="fill:none;fill-rule:evenodd;stroke:black;stroke-width:2;stroke-linecap:butt;stroke-linejoin:miter;stroke-miterlimit:4;stroke-dasharray:none;stroke-opacity:1" />
      <path
         style="fill:none;fill-rule:evenodd;stroke:black;stroke-width:2;stroke-linecap:butt;stroke-linejoin:miter;stroke-miterlimit:4;stroke-dasharray:none;stroke-opacity:1"
         d="M 526.48766,116.99348 L 526.44504,157.47626"
         id="path4882"
         sodipodi:nodetypes="cc" />
      <path
         id="path4884"
         d="M 520.89096,140.85168 L 504.99347,150.53921"
         style="fill:none;fill-rule:evenodd;stroke:black;stroke-width:2;stroke-linecap:butt;stroke-linejoin:miter;stroke-miterlimit:4;stroke-dasharray:none;stroke-opacity:1" />
      <path
         sodipodi:nodetypes="cc"
         style="fill:none;fill-rule:evenodd;stroke:black;stroke-width:2;stroke-linecap:butt;stroke-linejoin:miter;stroke-miterlimit:4;stroke-dasharray:none;stroke-opacity:1"
         d="M 520.89096,132.15774 L 490.00678,150.53921"
         id="path4886" />
      <path
         id="path4888"
         d="M 520.06297,123.9606 C 499.69432,134.89012 474.1921,150.70481 474.1921,150.70481"
         style="fill:none;fill-rule:evenodd;stroke:black;stroke-width:2;stroke-linecap:butt;stroke-linejoin:miter;stroke-miterlimit:4;stroke-dasharray:none;stroke-opacity:1"
         sodipodi:nodetypes="cc" />
      <path
         sodipodi:nodetypes="cc"
         style="fill:none;fill-rule:evenodd;stroke:black;stroke-width:2;stroke-linecap:butt;stroke-linejoin:miter;stroke-miterlimit:4;stroke-dasharray:none;stroke-opacity:1"
         d="M 505.07628,123.4638 C 484.70763,134.39332 458.37742,150.70481 458.37742,150.70481"
         id="path4890" />
      <path
         id="path4892"
         d="M 488.5992,123.4638 C 466.98856,134.97292 444.46712,150.29081 444.46712,150.29081"
         style="fill:none;fill-rule:evenodd;stroke:black;stroke-width:2;stroke-linecap:butt;stroke-linejoin:miter;stroke-miterlimit:4;stroke-dasharray:none;stroke-opacity:1"
         sodipodi:nodetypes="cc" />
      <path
         sodipodi:nodetypes="cc"
         style="fill:none;fill-rule:evenodd;stroke:black;stroke-width:2;stroke-linecap:butt;stroke-linejoin:miter;stroke-miterlimit:4;stroke-dasharray:none;stroke-opacity:1"
         d="M 472.45332,123.6294 C 452.41586,134.64172 443.97032,140.60328 443.97032,140.60328"
         id="path4894" />
      <path
         id="path4896"
         d="M 457.21823,123.46381 C 449.02108,127.76937 443.63912,131.66095 443.63912,131.66095"
         style="fill:none;fill-rule:evenodd;stroke:black;stroke-width:2;stroke-linecap:butt;stroke-linejoin:miter;stroke-miterlimit:4;stroke-dasharray:none;stroke-opacity:1"
         sodipodi:nodetypes="cc" />
      <path
         sodipodi:nodetypes="cc"
         style="fill:none;fill-rule:evenodd;stroke:black;stroke-width:2;stroke-linecap:butt;stroke-linejoin:miter;stroke-miterlimit:4;stroke-dasharray:none;stroke-opacity:1"
         d="M 400.58344,123.6294 C 425.42326,135.80092 444.71552,150.45641 444.71552,150.45641"
         id="path4898" />
      <path
         id="path4900"
         d="M 415.90132,123.6294 C 435.93878,134.64172 444.38432,140.60328 444.38432,140.60328"
         style="fill:none;fill-rule:evenodd;stroke:black;stroke-width:2;stroke-linecap:butt;stroke-linejoin:miter;stroke-miterlimit:4;stroke-dasharray:none;stroke-opacity:1"
         sodipodi:nodetypes="cc" />
      <path
         sodipodi:nodetypes="cc"
         style="fill:none;fill-rule:evenodd;stroke:black;stroke-width:2;stroke-linecap:butt;stroke-linejoin:miter;stroke-miterlimit:4;stroke-dasharray:none;stroke-opacity:1"
         d="M 430.72242,123.46381 C 438.91957,127.76937 444.30153,131.66095 444.30153,131.66095"
         id="path4902" />
      <path
         sodipodi:nodetypes="cc"
         style="fill:none;fill-rule:evenodd;stroke:black;stroke-width:2;stroke-linecap:butt;stroke-linejoin:miter;stroke-miterlimit:4;stroke-dasharray:none;stroke-opacity:1"
         d="M 373.74439,142.09367 C 377.96716,143.91526 385.75031,150.53921 385.75031,150.53921"
         id="path4904" />
      <path
         id="path4906"
         d="M 373.66159,133.48253 C 383.84592,138.69889 400.737,150.53921 400.737,150.53921"
         style="fill:none;fill-rule:evenodd;stroke:black;stroke-width:2;stroke-linecap:butt;stroke-linejoin:miter;stroke-miterlimit:4;stroke-dasharray:none;stroke-opacity:1"
         sodipodi:nodetypes="cc" />
      <path
         sodipodi:nodetypes="cc"
         style="fill:none;fill-rule:evenodd;stroke:black;stroke-width:2;stroke-linecap:butt;stroke-linejoin:miter;stroke-miterlimit:4;stroke-dasharray:none;stroke-opacity:1"
         d="M 373.90999,125.53379 C 393.61624,135.55252 416.55168,150.70481 416.55168,150.70481"
         id="path4908" />
      <path
         id="path4910"
         d="M 385.6675,123.4638 C 406.03615,134.39332 432.36636,150.70481 432.36636,150.70481"
         style="fill:none;fill-rule:evenodd;stroke:black;stroke-width:2;stroke-linecap:butt;stroke-linejoin:miter;stroke-miterlimit:4;stroke-dasharray:none;stroke-opacity:1"
         sodipodi:nodetypes="cc" />
      <path
         sodipodi:nodetypes="ccc"
         id="path4916"
         d="M 761.83718,146.56484 C 766.14275,142.17647 774.58828,137.04291 774.58828,137.04291 C 774.58828,137.04291 763.82436,131.24695 761.34038,127.85217"
         style="fill:#fcef3c;fill-opacity:1;fill-rule:evenodd;stroke:black;stroke-width:2;stroke-linecap:butt;stroke-linejoin:miter;stroke-miterlimit:4;stroke-dasharray:none;stroke-opacity:1" />
      <path
         transform="matrix(1.619949,0,0,0.985904,-487.845,1.942234)"
         d="M 784.02743 137.7881 A 4.595366 9.3563309 0 1 1  774.8367,137.7881 A 4.595366 9.3563309 0 1 1  784.02743 137.7881 z"
         sodipodi:ry="9.3563309"
         sodipodi:rx="4.595366"
         sodipodi:cy="137.7881"
         sodipodi:cx="779.43207"
         id="path4918"
         style="fill:#fcef3c;fill-opacity:1;stroke:black;stroke-width:1.58256662;stroke-miterlimit:4;stroke-dasharray:none;stroke-opacity:1"
         sodipodi:type="arc" />
      <path
         sodipodi:nodetypes="ccccccccccccccc"
         id="path5885"
         d="M 528.22014,116.44028 C 530.21077,106.9555 535.01171,106.01873 535.01171,106.01873 C 532.4356,103.91101 529.3911,99.461358 529.3911,99.461358 L 537.23653,99.461358 C 538.52459,97.35363 538.99298,94.192037 538.99298,94.192037 C 544.2623,99.227166 549.64871,97.236534 549.64871,97.236534 C 553.27869,92.786885 550.23419,87.985948 550.23419,87.985948 C 562.06089,87.166276 562.99766,98.875878 562.99766,98.875878 C 562.99766,98.875878 611.12412,92.318501 654.68384,52.740047 C 672.99152,81.934575 721.19438,97.35363 721.19438,97.35363 C 720.726,86.814988 730.91335,82.365339 730.91335,82.365339 C 731.49883,98.875878 745.43326,89.3911 745.43326,89.3911 C 740.39813,99.461358 753.1616,97.470726 753.1616,97.470726 C 753.1616,97.470726 751.28805,102.15457 745.55035,104.49649 C 745.55035,104.49649 755.38641,105.66745 754.33255,129.08665"
         style="fill:#fcef3c;fill-opacity:1;fill-rule:evenodd;stroke:black;stroke-width:2;stroke-linecap:butt;stroke-linejoin:miter;stroke-miterlimit:4;stroke-dasharray:none;stroke-opacity:1" />
      <path
         style="fill:#fcef3c;fill-opacity:1;fill-rule:evenodd;stroke:black;stroke-width:2;stroke-linecap:butt;stroke-linejoin:miter;stroke-miterlimit:4;stroke-dasharray:none;stroke-opacity:1"
         d="M 528.22014,159.06323 C 530.21077,168.54801 535.01171,169.48478 535.01171,169.48478 C 532.4356,171.5925 529.3911,176.04215 529.3911,176.04215 L 537.23653,176.04215 C 538.52459,178.14988 538.99298,181.31148 538.99298,181.31148 C 544.2623,176.27635 549.64871,178.26698 549.64871,178.26698 C 553.27869,182.71663 550.23419,187.51756 550.23419,187.51756 C 562.06089,188.33724 562.99766,176.62763 562.99766,176.62763 C 562.99766,176.62763 611.12412,183.18501 654.68384,222.76347 C 672.99152,193.56894 721.19438,178.14988 721.19438,178.14988 C 720.726,188.68852 730.91335,193.13817 730.91335,193.13817 C 731.49883,176.62763 745.43326,186.11241 745.43326,186.11241 C 740.39813,176.04215 753.1616,178.03279 753.1616,178.03279 C 753.1616,178.03279 751.28805,173.34894 745.55035,171.00702 C 745.55035,171.00702 755.38641,169.83606 754.33255,146.41686"
         id="path5887"
         sodipodi:nodetypes="ccccccccccccccc" />
      <path
         id="path5889"
         d="M 654.11517,53.167126 L 653.78398,87.114876"
         style="fill:none;fill-rule:evenodd;stroke:black;stroke-width:2;stroke-linecap:butt;stroke-linejoin:miter;stroke-miterlimit:4;stroke-dasharray:none;stroke-opacity:1" />
      <path
         sodipodi:nodetypes="cccccccccccccccccc"
         id="path4972"
         d="M 530.46138,130.94345 L 530.46244,126.31947 C 532.27743,124.79722 535.54645,120.06903 535.54645,120.06903 C 532.15067,119.01517 529.07805,116.54468 529.25369,115.43227 C 533.1719,114.89488 538.03043,116.34894 538.03043,116.34894 L 539.19795,110.76364 C 544.35017,115.97441 551.44393,114.27308 551.44393,114.27308 L 551.27833,107.43157 C 560.88021,106.78754 564.52623,114.14421 564.52623,114.14421 C 591.12565,115.56253 639.99107,94.358076 658.03759,85.492175 C 679.89663,105.36403 722.27328,113.76278 722.27328,113.76278 C 722.09764,107.90798 733.4588,104.79204 733.4588,104.79204 C 733.4588,104.79204 730.23634,116.42615 744.52205,110.10297 L 743.54855,115.43227 C 748.34949,112.97325 754.19051,113.29439 754.19051,113.29439 C 753.89777,115.75341 745.6913,120.23463 745.6913,120.23463 C 751.83884,121.46414 750.98042,127.51094 750.98042,127.51094 L 750.99046,131.32975"
         style="fill:#fcef3c;fill-opacity:1;fill-rule:evenodd;stroke:black;stroke-width:2;stroke-linecap:butt;stroke-linejoin:miter;stroke-miterlimit:4;stroke-dasharray:none;stroke-opacity:1" />
      <path
         style="fill:none;fill-rule:evenodd;stroke:black;stroke-width:2;stroke-linecap:butt;stroke-linejoin:miter;stroke-miterlimit:4;stroke-dasharray:none;stroke-opacity:1"
         d="M 657.89576,85.652662 L 657.62093,131.30158"
         id="path5891" />
      <path
         style="fill:#fcef3c;fill-opacity:1;fill-rule:evenodd;stroke:black;stroke-width:2;stroke-linecap:butt;stroke-linejoin:miter;stroke-miterlimit:4;stroke-dasharray:none;stroke-opacity:1"
         d="M 530.46138,144.89487 L 530.46244,149.51885 C 532.27743,151.0411 535.54645,155.76929 535.54645,155.76929 C 532.15067,156.82315 529.07805,159.29363 529.25369,160.40604 C 533.1719,160.94343 538.03043,159.48937 538.03043,159.48937 L 539.19795,165.07467 C 544.35017,159.8639 551.44393,161.56523 551.44393,161.56523 L 551.27833,168.40674 C 560.88021,169.05077 564.52623,161.6941 564.52623,161.6941 C 591.12565,160.27578 639.99107,181.48024 658.03759,190.34614 C 679.89663,170.47428 722.27328,162.07553 722.27328,162.07553 C 722.09764,167.93033 733.4588,171.04627 733.4588,171.04627 C 733.4588,171.04627 730.23634,159.41216 744.52205,165.73534 L 743.54855,160.40604 C 748.34949,162.86506 754.19051,162.54392 754.19051,162.54392 C 753.89777,160.0849 745.6913,155.60369 745.6913,155.60369 C 751.83884,154.37418 750.98042,148.32738 750.98042,148.32738 L 750.99046,144.50857"
         id="path5895"
         sodipodi:nodetypes="cccccccccccccccccc" />
      <path
         id="path5893"
         d="M 657.9008,144.88349 L 657.61589,188.08346"
         style="fill:none;fill-rule:evenodd;stroke:black;stroke-width:2;stroke-linecap:butt;stroke-linejoin:miter;stroke-miterlimit:4;stroke-dasharray:none;stroke-opacity:1" />
      <path
         style="fill:none;fill-rule:evenodd;stroke:black;stroke-width:2;stroke-linecap:butt;stroke-linejoin:miter;stroke-miterlimit:4;stroke-dasharray:none;stroke-opacity:1"
         d="M 654.11517,188.53012 L 653.78398,222.47787"
         id="path5897" />
      <path
         sodipodi:nodetypes="ccssccssc"
         id="path4914"
         d="M 751.15606,128.10058 L 751.40445,147.72403 C 751.40445,147.72403 752.15274,147.72527 752.85044,147.31245 C 755.83983,145.54364 757.39281,145.48793 760.58166,147.38512 C 760.9426,147.59985 761.47206,148.26346 761.83718,147.39283 L 761.58878,128.76297 C 761.58878,128.76297 762.10523,126.6462 760.52657,128.20015 C 759.39933,129.30975 756.53547,130.6694 752.29503,128.74656 C 751.92822,128.58022 751.96262,127.06825 751.15606,128.10058 z "
         style="fill:#fcef3c;fill-opacity:1;fill-rule:evenodd;stroke:black;stroke-width:2;stroke-linecap:butt;stroke-linejoin:miter;stroke-miterlimit:4;stroke-dasharray:none;stroke-opacity:1" />
      <path
         sodipodi:nodetypes="ccccc"
         id="path4912"
         d="M 530.21077,130.96019 L 751.19105,131.11158 L 751.49383,144.61192 L 530.21077,144.77752 L 530.21077,130.96019 z "
         style="fill:#fcef3c;fill-opacity:1;fill-rule:evenodd;stroke:black;stroke-width:2;stroke-linecap:butt;stroke-linejoin:miter;stroke-miterlimit:4;stroke-dasharray:none;stroke-opacity:1" />
    </g>
  </g>
  <g
     inkscape:groupmode="layer"
     id="layer4"
     inkscape:label="Meubles" />
  <g
     inkscape:groupmode="layer"
     id="layer2"
     inkscape:label="Reflet final"
     sodipodi:insensitive="true">
    <path
       sodipodi:nodetypes="cccccc"
       d="M 300.00001,658.5 C 300.00001,658.5 598.50001,546.17969 598.50001,260.72817 C 598.50001,-24.723334 598.50001,2.1764865 598.50001,2.1764865 L 1.5,2.1764865 L 1.5,260.72817 C 1.5,546.17969 300.00001,658.5 300.00001,658.5 z "
       style="opacity:1;fill:url(#radialGradient3163);fill-opacity:1;fill-rule:evenodd;stroke:none;stroke-width:1px;stroke-linecap:butt;stroke-linejoin:miter;stroke-opacity:1"
       id="path2875"
       inkscape:export-xdpi="144"
       inkscape:export-ydpi="144" />
  </g>
  <g
     inkscape:groupmode="layer"
     id="layer1"
     inkscape:label="Contour final"
     sodipodi:insensitive="true">
    <path
       sodipodi:nodetypes="cccccc"
       d="M 299.99999,658.50028 C 299.99999,658.50028 1.5,546.17992 1.5,260.72828 C 1.5,-24.723336 1.5,2.1764957 1.5,2.1764957 L 598.49999,2.1764957 L 598.49999,260.72828 C 598.49999,546.17992 299.99999,658.50028 299.99999,658.50028 z "
       style="opacity:1;fill:none;fill-opacity:1;fill-rule:evenodd;stroke:#000000;stroke-width:3.00000048;stroke-linecap:butt;stroke-linejoin:miter;stroke-miterlimit:4;stroke-dasharray:none;stroke-opacity:1"
       id="path1411"
       inkscape:export-xdpi="144"
       inkscape:export-ydpi="144" />
  </g>
</svg>
