<?xml version="1.0" encoding="UTF-8" standalone="no"?>
<!-- Created with Inkscape (http://www.inkscape.org/) -->
<svg
   xmlns:dc="http://purl.org/dc/elements/1.1/"
   xmlns:cc="http://web.resource.org/cc/"
   xmlns:rdf="http://www.w3.org/1999/02/22-rdf-syntax-ns#"
   xmlns:svg="http://www.w3.org/2000/svg"
   xmlns="http://www.w3.org/2000/svg"
   xmlns:sodipodi="http://sodipodi.sourceforge.net/DTD/sodipodi-0.dtd"
   xmlns:inkscape="http://www.inkscape.org/namespaces/inkscape"
   width="780"
   height="525"
   id="svg2"
   sodipodi:version="0.32"
   inkscape:version="0.44.1"
   sodipodi:docbase="K:\Data\Document\wiki_trav"
   sodipodi:docname="DrapeauMulhouse.svg"
   version="1.0">
  <defs
     id="defs4" />
  <sodipodi:namedview
     id="base"
     pagecolor="#ffffff"
     bordercolor="white"
     borderopacity="0"
     inkscape:pageopacity="0.0"
     inkscape:pageshadow="2"
     inkscape:zoom="1"
     inkscape:cx="348.01562"
     inkscape:cy="223.75895"
     inkscape:document-units="px"
     inkscape:current-layer="layer1"
     inkscape:window-width="1361"
     inkscape:window-height="950"
     inkscape:window-x="231"
     inkscape:window-y="23"
     inkscape:showpageshadow="false"
     showborder="false" />
  <metadata
     id="metadata7">
    <rdf:RDF>
      <cc:Work
         rdf:about="">
        <dc:format>image/svg+xml</dc:format>
        <dc:type
           rdf:resource="http://purl.org/dc/dcmitype/StillImage" />
      </cc:Work>
    </rdf:RDF>
  </metadata>
  <g
     inkscape:label="Calque 1"
     inkscape:groupmode="layer"
     id="layer1">
    <rect
       style="opacity:1;fill:white;fill-opacity:1;fill-rule:nonzero;stroke:none;stroke-width:0;stroke-miterlimit:4;stroke-dasharray:none;stroke-opacity:1"
       id="rectFondBlanc"
       width="780"
       height="525"
       x="0"
       y="0" />
    <path
       style="fill:red;fill-rule:evenodd;stroke:none;stroke-width:0;stroke-linecap:butt;stroke-linejoin:miter;stroke-opacity:1;fill-opacity:1;marker-start:none;stroke-miterlimit:4;stroke-dasharray:none"
       d="M 465.0359,0.12255051 C 405.76824,-0.97601378 369.6014,-0.16913446 318.29659,1.3357544 C 340.79098,19.222634 343.40014,21.228125 344.53082,40.137419 C 345.72168,60.05317 324.51014,79.697101 330.90863,108.58014 C 337.52025,138.42528 368.22509,144.64952 383.86729,156.94851 C 393.29777,166.37898 399.16317,179.01443 399.16317,194.07651 C 399.16317,214.94908 376.60279,241.98966 386.55112,266.8916 C 393.94482,236.78236 413.93433,229.72443 424.87745,218.96882 C 435.82056,208.2132 443.94411,196.42026 441.4855,179.9641 C 439.10071,164.00216 417.18095,140.57666 419.17803,115.95323 C 421.29485,89.853409 428.11202,91.630402 438.32633,80.325602 C 447.94986,69.674664 455.45186,70.784853 467.7346,54.10624 C 480.43594,36.859211 473.53846,11.459303 465.0359,0.12255051 z "
       id="path1"
       sodipodi:nodetypes="cczzcsczzsszc" />
    <path
       style="fill:red;fill-opacity:1;fill-rule:evenodd;stroke:none;stroke-width:0;stroke-linecap:butt;stroke-linejoin:miter;stroke-opacity:1;stroke-miterlimit:4;stroke-dasharray:none"
       d="M 192.09855,0.44131795 C 132.83089,-0.65724205 98.092624,0.14963795 46.787814,1.6545279 C 67.853633,25.96998 82.530212,49.868349 99.450616,65.456188 C 115.64148,80.371938 148.85569,101.57202 165.82843,119.61319 C 183.15433,138.02976 249.15266,146.02379 289.50137,172.26728 C 329.20982,198.09434 331.33167,212.27431 341.94011,222.96671 C 361.94011,243.12499 370.09401,248.737 387.1852,267.21037 C 369.99732,243.4938 367.71862,226.81409 361.52168,208.24154 C 355.39254,189.87219 355.31526,189.58972 336.40529,170.28287 C 316.44232,149.90091 273.55574,140.86492 253.38354,123.41485 C 245.22234,116.35497 233.89296,104.28596 230.38898,96.358654 C 221.75063,76.815504 219.93875,70.349923 216.94011,55.85358 C 214.04879,41.876054 205.60111,18.206649 192.09855,0.44131795 z "
       id="path2"
       sodipodi:nodetypes="cczzzsczzsszc" />
    <path
       style="fill:red;fill-opacity:1;fill-rule:evenodd;stroke:none;stroke-width:0;stroke-linecap:butt;stroke-linejoin:miter;stroke-opacity:1;stroke-miterlimit:4;stroke-dasharray:none"
       d="M 1.5772841,105.89181 C 2.4730341,131.51768 1.0007937,157.15124 0.98160795,207.74749 C 42.795026,195.62568 70.355383,202.72393 87.939886,211.0836 C 104.9396,219.16526 137.75331,241.23767 163.65163,240.81854 C 189.54824,240.39944 212.43608,235.36124 232.89559,229.95482 C 252.08816,224.88318 266.30088,225.51117 289.52359,227.07274 C 325.60167,229.49875 345.45785,258.45507 387.03261,266.16908 C 338.03802,244.62948 351.29837,235.9015 305.14104,209.22312 C 259.29006,182.72179 213.21743,190.49689 162.43183,189.85328 C 111.64898,189.20971 129.10128,168.65645 115.76753,154.47131 C 102.43378,140.28617 86.314936,130.32315 70.120687,122.71509 C 52.675424,114.51929 41.939102,108.66092 1.5772841,105.89181 z "
       id="path3"
       sodipodi:nodetypes="cczzssczzzzc" />
    <path
       style="fill:red;fill-opacity:1;fill-rule:evenodd;stroke:none;stroke-width:0;stroke-linecap:butt;stroke-linejoin:miter;stroke-opacity:1;stroke-miterlimit:4;stroke-dasharray:none"
       d="M -0.37559685,311.94295 C 0.52014876,337.56882 -1.3705071,363.20239 -0.67540758,413.79864 C 27.010743,385.78922 62.335896,377.74108 85.691133,375.82872 C 109.11941,373.91038 135.18182,372.78965 168.63239,357.49731 C 202.35823,342.07912 210.67499,326.06164 224.09572,313.27137 C 243.55717,294.72415 264.79655,287.29328 287.53481,282.32295 C 322.18432,274.74896 347.37226,275.34305 387.51845,265.9142 C 346.381,268.66031 331.09095,258.15713 296.30527,256.3203 C 261.48936,254.48188 249.33049,256.45496 235.14158,264.18674 C 220.95268,271.91853 212.35665,281.53795 201.9793,288.42981 C 191.94974,295.09068 172.40837,302.45704 146.16671,303.18524 C 119.41997,303.91344 102.82638,294.30948 68.601087,293.85288 C 32.947224,293.39628 18.246908,295.39045 -0.37559685,311.94295 z "
       id="path4"
       sodipodi:nodetypes="cczzssczszzzc" />
    <path
       style="fill:red;fill-opacity:1;fill-rule:evenodd;stroke:none;stroke-width:0;stroke-linecap:butt;stroke-linejoin:miter;stroke-opacity:1;stroke-miterlimit:4;stroke-dasharray:none"
       d="M -0.51289205,525.65428 C 24.668568,525.56587 94.920765,526.19943 149.90157,526.0814 C 147.58772,505.21483 162.15978,485.24861 172.78335,476.71881 C 184.06877,467.65761 188.89695,465.62825 227.34752,443.19305 C 266.10531,420.57859 272.00906,403.95973 273.36668,383.42614 C 274.58367,365.01972 275.2582,350.34234 293.74314,329.06102 C 319.78971,299.07416 357.85887,295.14746 386.83647,266.01448 C 358.55616,290.18916 305.93262,300.07224 269.06101,321.251 C 231.87701,342.60918 211.51243,371.53562 203.86231,385.20749 C 196.5146,398.33892 183.39365,409.81557 165.07003,423.11593 C 147.13422,436.13479 104.83193,450.87795 73.463788,465.42135 C 42.682345,479.69273 6.9917709,500.56625 -0.51289205,525.65428 z "
       id="path5"
       sodipodi:nodetypes="cczzssczzzzc" />
    <path
       style="fill:red;fill-opacity:1;fill-rule:evenodd;stroke:none;stroke-width:0;stroke-linecap:butt;stroke-linejoin:miter;stroke-opacity:1;stroke-miterlimit:4;stroke-dasharray:none"
       d="M 306.30454,526.55532 C 331.486,526.46691 401.7382,527.10048 456.71901,526.98245 C 430.83373,508.97302 428.94299,495.93086 428.79984,482.58395 C 428.65669,468.52275 436.53309,462.69631 439.59823,446.39539 C 442.64174,430.2095 447.51959,410.44741 435.06157,399.31231 C 422.60354,388.17721 403.23013,382.96656 380.64351,357.64961 C 358.7574,333.11785 392.53716,298.65311 386.96907,265.65284 C 370.83161,304.11323 333.46434,303.83042 332.30701,334.29489 C 331.12336,365.45235 347.78495,380.06471 352.8226,395.39424 C 358.07162,411.36696 354.48354,420.135 343.31604,435.44554 C 332.49137,450.28606 306.74892,460.86822 300.28122,484.17953 C 293.6297,508.15334 300.95206,510.03872 306.30454,526.55532 z "
       id="path6"
       sodipodi:nodetypes="cczzzzczzzzc" />
    <path
       style="fill:red;fill-opacity:1;fill-rule:evenodd;stroke:none;stroke-width:0;stroke-linecap:butt;stroke-linejoin:miter;stroke-opacity:1;stroke-miterlimit:4;stroke-dasharray:none"
       d="M 613.05548,526.17152 C 638.23694,526.08311 709.20342,526.00239 764.18423,525.88436 C 721.87038,510.73207 716.79574,502.44173 696.97935,487.91443 C 677.40104,473.56167 661.09903,445.75248 639.9206,429.58302 C 617.61626,412.55395 598.56467,399.87806 569.9978,388.61416 C 540.87588,377.13141 532.44108,378.55943 516.09822,370.35708 C 499.15066,361.85124 470.69535,349.72561 450.96588,325.83724 C 431.43965,302.19496 408.02912,280.87763 386.74675,265.73451 C 415.60928,300.62347 402.93928,300.60217 414.77224,328.1968 C 426.39484,355.30087 449.93441,366.62188 485.28782,382.15329 C 518.39398,396.69744 530.17982,405.55701 542.92412,427.91888 C 555.32696,449.68161 549.50158,454.57449 559.8893,477.36716 C 570.36214,500.34659 588.41729,511.08349 613.05548,526.17152 z "
       id="path7"
       sodipodi:nodetypes="cczzzzzczzzzc" />
    <path
       style="fill:red;fill-opacity:1;fill-rule:evenodd;stroke:none;stroke-width:0;stroke-linecap:butt;stroke-linejoin:miter;stroke-opacity:1;stroke-miterlimit:4;stroke-dasharray:none"
       d="M 779.4831,424.08334 C 780.42088,400.25634 780.67667,351.18322 780.60417,319.24539 C 758.4934,323.79107 736.3161,327.63127 720.97543,325.72217 C 705.70473,323.82178 684.26994,319.05068 666.44206,306.78671 C 649.29338,294.98996 636.19781,289.20358 606.11571,288.04121 C 576.53868,286.87884 567.33358,291.32446 548.6806,296.55317 C 531.21371,301.44941 503.27773,305.7212 475.46704,300.01558 C 446.68631,294.11096 429.37355,272.22856 386.87798,266.17681 C 429.63754,281.15858 449.1949,315.02842 490.79118,329.14418 C 531.03136,342.79974 562.71899,334.34336 598.17733,342.18949 C 634.96457,350.32968 642.76882,359.84817 664.39992,377.85355 C 686.90429,396.58583 683.30653,395.62281 708.63922,409.11909 C 733.75927,422.50207 748.78397,420.61206 779.4831,424.08334 z "
       id="path8"
       sodipodi:nodetypes="cczzzzzczzzzc" />
    <path
       style="fill:red;fill-opacity:1;fill-rule:evenodd;stroke:none;stroke-width:0;stroke-linecap:butt;stroke-linejoin:miter;stroke-opacity:1;stroke-miterlimit:4;stroke-dasharray:none"
       d="M 779.0535,214.0641 C 777.46592,190.2371 779.74203,141.16398 779.66955,109.22615 C 758.06385,124.37844 735.50753,144.78164 693.27177,150.5532 C 651.7371,156.22895 642.42414,154.48831 617.02012,162.42739 C 591.94126,170.26485 568.59312,193.33158 554.16838,208.83673 C 540.20321,223.84788 531.8004,228.42445 517.94648,235.02636 C 507.23244,240.13199 477.23046,247.27533 462.41059,249.60045 C 439.40399,253.20999 421.08496,248.5626 386.91571,266.31687 C 417.54293,254.39037 464.27374,269.69184 483.72566,270.37734 C 503.69233,271.08097 522.82059,272.88313 544.01971,258.71852 C 565.05242,244.66509 576.86005,224.14578 621.03889,223.89778 C 665.57487,223.64978 686.10848,234.68103 713.26044,232.93996 C 745.43994,233.6678 759.4661,225.74511 779.0535,214.0641 z "
       id="path9"
       sodipodi:nodetypes="cczzzssczzzcc" />
    <path
       style="fill:red;fill-opacity:1;fill-rule:evenodd;stroke:none;stroke-width:0;stroke-linecap:butt;stroke-linejoin:miter;stroke-opacity:1;stroke-miterlimit:4;stroke-dasharray:none"
       d="M 777.65421,0.94085803 C 742.22652,-0.157706 677.34416,-1.3711321 625.86414,0.13375687 C 618.40057,18.316504 616.718,29.085704 605.63135,43.986184 C 581.63226,67.925071 546.56969,76.516075 521.29848,98.791853 C 509.26128,112.30142 500.79861,118.5231 498.4957,148.67546 C 496.2695,177.82343 487.02254,189.93427 478.94132,199.44051 C 472.18183,207.39195 455.05125,217.60247 434.60376,228.74847 C 414.15628,239.89447 390.77069,250.9658 386.90602,266.69977 C 395.81495,253.25804 426.35564,239.20194 439.50077,233.92927 C 452.46418,228.72949 486.34642,216.02855 512.67735,201.49054 C 539.42434,186.72283 558.71725,156.1717 574.16171,136.21729 C 582.06928,126.00062 603.52228,105.91315 627.24112,92.583604 C 650.95997,79.254058 661.50809,76.764334 682.29887,69.294375 C 702.92412,61.883892 751.32861,40.733312 777.65421,0.94085803 z "
       id="path10"
       sodipodi:nodetypes="cccczssczzzszc" />
    <rect
       style="opacity:1;fill:white;fill-opacity:1;fill-rule:nonzero;stroke:red;stroke-width:3;stroke-miterlimit:4;stroke-dasharray:none;stroke-opacity:1"
       id="rectRoue"
       width="189.5"
       height="189.5"
       x="1.5"
       y="1.5" />
    <path
       d="M 71.418561,14.265549 L 85.188019,27.548093 C 72.228347,29.11785 63.648538,31.837095 53.899712,39.722958 L 54.078991,20.579776 C 39.927454,28.540471 25.333772,40.491378 20.084294,53.94618 L 38.564111,54.096307 C 32.132651,62.837761 27.784532,67.953056 24.994242,86.308448 L 11.305572,72.459569 C 5.6712625,89.975372 7.9427447,106.52154 11.053034,120.69345 L 23.984089,108.08288 C 25.511742,121.38911 29.354289,130.05836 37.048883,140.06686 L 18.569065,140.08174 C 27.606615,154.04163 37.297468,164.18144 51.954082,172.89975 L 51.790121,154.80362 C 60.824674,162.87222 69.743666,167.52624 82.703338,169.09713 L 71.074109,180.20882 C 85.495539,184.52995 105.64596,185.78943 118.92096,180.80319 L 106.72115,168.47213 C 119.67718,166.90616 129.182,161.92268 138.92768,154.03974 L 139.07754,172.11776 C 151.1939,164.66485 163.88157,150.43439 171.14546,138.00279 L 153.87813,138.06188 C 161.56402,128.05941 162.97688,120.89903 164.50684,107.60218 L 177.43789,120.44091 C 183.79003,108.04237 181.81576,86.86674 177.43789,72.182649 L 164.00176,86.031536 C 162.47186,72.736289 159.38002,65.041433 151.69457,55.043325 L 169.31456,55.023955 C 162.30321,40.824589 149.22141,28.677562 137.10505,21.224668 L 136.99031,41.403211 C 127.24463,33.524437 119.2894,30.628161 105.57575,27.800631 L 119.06889,14.265549 C 103.89777,11.017905 89.172135,9.1709447 71.418561,14.265549 z M 88.024884,46.319983 L 88.200827,78.036023 L 74.966411,78.044996 L 74.998907,90.128403 L 42.332502,90.191537 C 47.798678,68.068296 65.231786,50.121025 88.024884,46.319983 z M 101.96595,45.993479 C 124.51401,51.048584 140.84444,67.934134 146.56098,89.81273 L 113.88644,89.938999 L 114.01271,78.020704 L 101.93159,78.183956 L 101.96595,45.993479 z M 89.050768,92.160591 L 100.38903,92.012657 L 100.36736,103.17421 L 88.924498,103.16338 L 89.050768,92.160591 z M 42.079963,103.84536 L 75.062042,103.9085 L 74.935773,115.9765 L 88.074558,115.9765 L 88.200827,151.02157 C 63.142598,147.47086 45.786783,127.22359 42.079963,103.84536 z M 114.01271,103.84536 L 146.44793,103.84536 C 142.52137,129.96606 127.82258,141.96062 101.80532,151.65292 L 102.121,115.9765 L 113.82331,115.91337 L 114.01271,103.84536 z "
       style="opacity:1;fill:red;fill-opacity:1;fill-rule:nonzero;stroke:black;stroke-width:0.1;stroke-linecap:square;stroke-linejoin:miter;stroke-miterlimit:1;stroke-dasharray:none;stroke-dashoffset:0;stroke-opacity:1"
       id="pathRoue"
       sodipodi:nodetypes="cccccccccccccccccccccccccccccccccccccccccccccccccccccccccccccc" />
  </g>
</svg>
